<?xml version="1.0" standalone="no"?>
<!DOCTYPE svg PUBLIC "-//W3C//DTD SVG 20010904//EN"
 "http://www.w3.org/TR/2001/REC-SVG-20010904/DTD/svg10.dtd">
<svg version="1.0" xmlns="http://www.w3.org/2000/svg"
 width="1254.000000pt" height="676.000000pt" viewBox="0 0 1254.000000 676.000000"
 preserveAspectRatio="xMidYMid meet">
<metadata>
Created by potrace 1.15, written by Peter Selinger 2001-2017
</metadata>
<g transform="translate(0.000000,676.000000) scale(0.100000,-0.100000)"
fill="#000000" stroke="none">
<path d="M0 3380 l0 -3380 6270 0 6270 0 0 3380 0 3380 -6270 0 -6270 0 0
-3380z m6445 1379 c208 -64 362 -195 451 -384 98 -208 96 -413 -8 -625 -59
-120 -178 -239 -298 -298 -125 -61 -193 -77 -335 -77 -131 0 -215 19 -325 75
-236 119 -390 372 -390 639 1 337 223 608 565 687 85 20 250 12 340 -17z
m-438 -1709 c148 -51 253 -187 270 -350 15 -144 -70 -305 -198 -374 -101 -56
-198 -68 -304 -40 -267 69 -389 374 -243 607 97 154 294 219 475 157z m-1795
-305 c31 -154 57 -286 58 -292 0 -10 -25 -13 -95 -13 l-95 0 -11 45 -12 46
-106 -3 -106 -3 -23 -42 -23 -43 -65 0 c-35 0 -64 2 -64 5 0 4 251 464 297
543 l24 43 82 -3 81 -3 58 -280z m398 273 c0 -7 -16 -100 -35 -207 -19 -107
-35 -202 -35 -213 0 -36 36 -58 95 -58 92 0 97 10 146 293 16 95 31 178 34
185 3 8 27 12 70 12 l67 0 -6 -27 c-4 -16 -22 -114 -40 -219 -21 -117 -42
-206 -55 -232 -27 -54 -88 -98 -156 -113 -76 -17 -213 -8 -256 17 -50 30 -79
78 -79 133 0 41 32 246 61 389 l10 52 90 0 c64 0 89 -3 89 -12z m880 0 c0 -7
-3 -30 -6 -50 l-7 -38 -78 0 c-44 0 -79 -3 -79 -6 0 -17 -82 -469 -86 -476 -3
-4 -46 -8 -95 -8 -88 0 -89 0 -84 23 13 56 75 424 75 444 0 22 -3 23 -76 23
-67 0 -75 2 -70 18 2 9 7 32 11 50 l7 32 244 0 c189 0 244 -3 244 -12z m1090
-65 c17 -43 33 -79 35 -81 1 -1 30 34 64 78 l62 80 71 0 c56 0 69 -3 65 -14
-3 -8 -54 -76 -114 -151 l-108 -137 -25 -141 -25 -142 -94 -3 c-93 -3 -93 -3
-88 20 3 13 15 77 26 144 l21 121 -60 144 c-33 79 -60 147 -60 151 0 5 44 8
99 8 l98 0 33 -77z m729 30 c12 -53 111 -533 111 -540 0 -2 -44 -2 -97 -1
l-98 3 -9 43 -9 42 -106 0 -106 0 -24 -45 -24 -45 -64 0 c-58 0 -64 2 -58 18
3 9 61 116 127 237 67 121 135 246 152 277 l31 58 82 0 81 0 11 -47z m668 32
c71 -21 87 -42 91 -125 7 -110 -43 -188 -130 -207 -16 -3 -28 -7 -28 -8 0 -2
23 -51 50 -110 28 -59 50 -111 50 -116 0 -6 -41 -8 -96 -7 l-97 3 -46 132
c-25 72 -49 134 -52 137 -3 3 -16 -56 -30 -132 l-24 -137 -93 -3 -94 -3 6 28
c3 15 26 145 51 287 26 143 48 263 51 268 10 15 336 9 391 -7z m583 -11 c19
-11 46 -40 60 -64 20 -38 24 -57 23 -125 -2 -155 -64 -284 -163 -339 -55 -31
-55 -31 -239 -35 l-184 -3 6 23 c3 13 27 143 52 289 26 145 49 268 52 273 3 5
85 7 182 5 156 -3 180 -5 211 -24z m-2630 -1422 l0 -89 -50 -1 c-56 -1 -70 13
-70 67 0 37 26 64 57 58 20 -4 23 0 23 24 0 22 5 29 20 29 18 0 20 -7 20 -88z
m335 11 c-9 -39 -23 -53 -54 -54 -25 -1 -24 -1 5 -8 44 -11 54 -19 54 -46 0
-28 -26 -45 -68 -45 -33 0 -58 22 -46 42 4 6 7 35 7 62 -1 28 3 56 9 63 6 7
31 13 55 13 44 0 45 -1 38 -27z"/>
<path d="M6130 4685 c-86 -16 -176 -55 -158 -68 9 -6 8 -7 -5 -3 -36 12 -115
-47 -96 -71 8 -8 8 -13 1 -13 -6 0 -12 6 -15 13 -8 22 -68 -44 -61 -67 4 -15
3 -17 -4 -8 -12 18 -51 -28 -81 -95 -13 -26 -26 -55 -31 -65 -5 -9 -17 -53
-26 -99 -33 -166 6 -349 104 -477 20 -26 27 -30 39 -21 8 7 12 18 9 26 -6 14
12 17 31 5 10 -6 10 -12 -3 -28 -8 -10 -13 -13 -9 -6 9 17 -10 15 -25 -3 -11
-13 -8 -21 16 -46 37 -39 147 -113 204 -137 122 -52 295 -62 412 -25 83 27
150 61 143 72 -2 5 2 8 10 7 20 -2 135 97 130 112 -3 7 0 10 5 7 6 -3 10 -2
10 3 0 17 -12 21 -31 9 -15 -9 -22 -8 -36 7 -17 18 -17 18 5 5 20 -12 25 -12
36 4 13 16 14 16 20 1 6 -15 8 -15 24 -1 16 14 55 86 81 147 24 58 34 121 34
213 0 84 -3 100 -19 113 -10 9 -13 13 -6 9 15 -8 15 -1 -2 55 -19 64 -52 130
-82 165 -15 17 -23 24 -19 16 5 -9 4 -12 -3 -7 -6 4 -9 12 -6 19 11 29 -180
185 -212 173 -8 -3 -13 -2 -10 3 8 12 -38 34 -72 35 -17 1 -28 4 -26 8 2 3
-28 12 -67 19 -55 10 -75 10 -90 1 -10 -7 -22 -12 -26 -12 -5 0 -1 5 7 10 20
13 -16 12 -100 -5z"/>
<path d="M5782 3034 c-86 -22 -178 -76 -166 -97 4 -7 4 -9 -1 -5 -12 11 -35
-11 -29 -27 3 -7 0 -16 -7 -21 -8 -5 -10 -3 -5 7 4 8 -4 1 -17 -15 -76 -88
-73 -298 5 -409 47 -67 173 -158 198 -142 4 3 10 -1 12 -7 3 -9 32 -13 99 -13
84 0 101 3 159 31 65 31 140 87 140 105 0 6 9 19 20 31 44 48 69 180 51 268
-14 64 -54 146 -69 143 -6 -2 -9 3 -6 11 6 15 -47 64 -108 100 -81 47 -188 62
-276 40z"/>
<path d="M7750 2926 c0 -2 -7 -40 -15 -83 -22 -112 -21 -113 21 -113 80 0 134
52 134 130 0 46 -30 70 -90 70 -27 0 -50 -2 -50 -4z"/>
<path d="M8330 2926 c0 -2 -13 -82 -30 -178 -16 -95 -30 -181 -30 -190 0 -15
9 -18 44 -18 88 0 134 33 167 119 29 80 36 178 15 219 -9 18 -28 37 -42 42
-24 10 -124 14 -124 6z"/>
</g>
</svg>
